# xmcd
#
# Track frame offsets: 
#        150
#        9811
#        22273
#        35688
#        47912
#        59666
#        76945
#        90211
#        105567
#        133154
#        146295
#        161039
#        178383
#        193456
#        223595
#        235790
#        251114
#        266973
#        287453
#        299290
#        315523
#
# Disc length: 4406 seconds
#
# Revision: 0
# Processed by: cddbd v1.5.2PL0 Copyright (c) Steve Scherf et al.
# Submitted via: ExactAudioCopy v0.90b4
#
DISCID=3b113415
DTITLE=Various Artist - Shattered Dreams: Funky Blues 1967-1978
DYEAR=2011
DGENRE=Blues
TTITLE0=Slim Green - Shake 'Em Up
TTITLE1=Finis Tasby - It Took Along Time
TTITLE2=Al King - Bad Understanding
TTITLE3=Lowell Fulson - Mellow Together
TTITLE4=The Johnny Otis Show - Country Girl
TTITLE5=Little Milton - That's What Love Will Make You Do
TTITLE6=Icewater Slim - Your Love Is Good Enough For Me
TTITLE7=Albert King - Playing On Me
TTITLE8=Smokey Wilson - You Shattered My Dreams
TTITLE9=Larry Davis - The Whole World's Down On You
TTITLE10=Finis Tasby - Cloudy Day
TTITLE11=Buddy Guy - I'm Not The Best
TTITLE12=Johnny Otis Show - Comin At Ya Baby (Part 2)
TTITLE13=Little Sonny - Eli's Pork Chop
TTITLE14=Arthur K Adams - Gimme Some Of Your Lovin'
TTITLE15=Lowell Fulson - Welcome Home
TTITLE16=Albert Washington - No Matter What The Cost May Be
TTITLE17=Smokey Wilson - High Time
TTITLE18=Big Daddy Rucker - You Got Me Movin'
TTITLE19=Freddy Robinson - Good Feeling
TTITLE20=Ray Agee - Tough Competition
EXTD=
EXTT0=
EXTT1=
EXTT2=
EXTT3=
EXTT4=
EXTT5=
EXTT6=
EXTT7=
EXTT8=
EXTT9=
EXTT10=
EXTT11=
EXTT12=
EXTT13=
EXTT14=
EXTT15=
EXTT16=
EXTT17=
EXTT18=
EXTT19=
EXTT20=
PLAYORDER=
